<svg width="514" height="602" viewBox="0 0 514 602" fill="none" xmlns="http://www.w3.org/2000/svg">
<g clip-path="url(#clip0_7_16)">
<path d="M-18.9526 351.207L79.5923 245.74L134.592 173.365L224.387 152.604L323.176 53.8653L434.303 14.0199L504.466 0V35.9062L374.248 115.573L294.55 217.125L240.113 324.844L235.622 364.677L264.248 425.834H306.899L430.937 352.896L489.866 354.572L514 375.332V407.874L391.651 481.938L319.811 507.739L235.059 557.677L185.101 568.333L62.1891 596.385L23.4663 590.769L-22 602L-18.9526 351.207Z" fill="#EBEBEB"/>
<path d="M168.505 199.827L210.349 185.623L284.429 173.365L375.374 172.802L334.399 226.105L304.097 228.344L231.412 214.593H192.358L168.505 199.827Z" fill="#D9D6D1"/>
<path d="M375.374 172.802L439.92 225.542L450.58 256.958L466.294 281.083L459.563 296.792H437.105L413.534 280.521L403.437 256.396L334.399 226.105L375.374 172.802Z" fill="#D9D6D1"/>
<path d="M134.592 173.365L395.849 109.187L389.203 175.897L231.412 214.593H149.744L134.592 173.365Z" fill="#E9E9E9"/>
<path d="M395.849 109.187L463.822 149.044L479.206 154.843L491.518 182.357L507.269 204.219V217.125L483.134 226.105L456.197 214.593L435.783 190.407L389.203 175.897L389.399 110.496L395.849 109.187Z" fill="#E9E9E9"/>
<path d="M125.046 217.688L231.412 214.593L304.097 228.344L338.328 256.396L360.223 267.614L371.445 290.614L389.399 311.937L374.248 323.155L340.567 313.625L326.542 292.865L295.113 276.594L261.996 263.687L131.79 262.011L125.046 217.688Z" fill="#BEBCB7"/>
<path d="M125.046 217.688L231.412 214.593L304.097 228.344L261.996 263.687L131.79 262.011L125.046 217.688Z" fill="#BEBCB7"/>
<path d="M304.097 228.344L338.328 256.396L360.223 267.614L371.445 290.614L389.399 311.937L374.248 323.155L340.567 313.625L326.542 292.865L261.996 263.687L304.097 228.344Z" fill="#BEBCB7"/>
<path d="M264.248 425.834H306.899L371.776 387.676L429.517 459.012L391.651 481.938L319.811 507.739L305.124 516.388L265.227 427.999" fill="#EBEBEB"/>
<path d="M371.776 387.676L430.937 352.896L489.865 354.572L514 371.968V407.874L429.517 459.012L371.776 387.676Z" fill="#EBEBEB"/>
<path d="M134.592 173.365L268.397 268.874L240.113 324.844L236.295 358.646L264.248 425.834L305.124 516.388L235.059 557.677L62.1891 596.385L23.4663 590.769L-22 602L-18.9526 351.207L134.592 173.365Z" fill="#EBEBEB"/>
<path d="M224.387 152.604L134.592 173.365L267.895 268.874L314.462 202.163L224.387 152.604Z" fill="#EBEBEB"/>
<path d="M323.176 53.8653L224.387 152.604L312.786 204.573L374.248 115.573L323.176 53.8653Z" fill="#EBEBEB"/>
<path d="M323.176 53.8653L434.303 14.0199L504.466 0V35.9062L374.248 115.573L323.176 53.8653Z" fill="#EBEBEB"/>
</g>
<defs>
<clipPath id="clip0_7_16">
<rect width="536" height="602" fill="white" transform="translate(-22)"/>
</clipPath>
</defs>
</svg>
