<svg width="1440" height="627" viewBox="0 0 1440 627" fill="none" xmlns="http://www.w3.org/2000/svg">
<g clip-path="url(#clip0_5_5)">
<path d="M1410.62 554.144H1410.66C1410.66 554.144 1409.43 552.376 1408.72 552.011C1408.07 551.685 1402.18 551.051 1400.14 545.959C1400.91 545.364 1401.41 544.441 1401.41 543.404C1401.41 541.963 1400.45 540.733 1399.14 540.33C1399.1 539.83 1399.07 539.312 1399.03 538.774C1400.16 538.409 1400.99 537.352 1400.99 536.084C1400.99 534.758 1400.06 533.644 1398.82 533.336C1398.8 532.625 1398.8 531.934 1398.8 531.242C1399.53 530.973 1400.04 530.301 1400.04 529.474C1400.04 528.648 1399.53 527.976 1398.8 527.707C1398.82 525.958 1398.84 524.421 1398.85 523.249C1400.49 522.807 1401.68 521.328 1401.68 519.56C1401.68 517.447 1399.97 515.718 1397.84 515.718C1396.47 515.718 1395.28 516.429 1394.59 517.505C1394.88 517.37 1395.21 517.274 1395.55 517.274C1396.8 517.274 1397.82 518.292 1397.82 519.541C1397.82 520.79 1396.8 521.808 1395.55 521.808C1395.21 521.808 1394.88 521.732 1394.59 521.578C1395.21 522.539 1396.24 523.192 1397.41 523.307C1397.43 524.46 1397.47 525.978 1397.47 527.668C1396.74 527.937 1396.22 528.61 1396.22 529.436C1396.22 530.262 1396.74 530.935 1397.47 531.204C1397.47 531.895 1397.45 532.606 1397.45 533.298C1396.2 533.605 1395.28 534.72 1395.28 536.045C1395.28 537.313 1396.11 538.37 1397.24 538.735C1397.2 539.273 1397.16 539.792 1397.13 540.291C1395.82 540.714 1394.86 541.924 1394.86 543.365C1394.86 544.403 1395.36 545.325 1396.13 545.921C1394.09 551.012 1388.2 551.646 1387.55 551.973C1386.83 552.319 1385.61 554.106 1385.61 554.106H1385.64C1375.12 557.794 1365.29 565.672 1357.8 574.933V545.979L1347.82 524.575V420.978L1357.8 399.575H1360.8V395.213H1357.8V383.724H1343.1V287.658L1351.03 266.255H1353.41V261.894H1351.03V250.404H1341.39V212.939L1346.75 196.684H1348.92V191.92H1345.56V183.792H1343.19C1335.67 183.792 1329.56 177.683 1329.56 170.132V165.54H1332.13V161.966H1329.56V154.031H1332.13V150.458H1329.56V144.156C1333.79 142.35 1336.74 138.161 1336.74 133.281C1336.74 127.287 1332.29 122.349 1326.51 121.561C1326.45 120.793 1326.39 119.986 1326.34 119.179C1328.2 118.583 1329.56 116.854 1329.56 114.779C1329.56 112.589 1328.04 110.783 1326.01 110.283C1325.99 109.13 1325.97 107.997 1325.97 106.863C1327.16 106.441 1328.03 105.307 1328.03 103.962C1328.03 102.617 1327.16 101.484 1325.97 101.061C1325.99 98.1981 1326.03 95.6812 1326.09 93.7791C1328.76 93.049 1330.71 90.6474 1330.71 87.7462C1330.71 84.2878 1327.91 81.4635 1324.44 81.4635C1322.21 81.4635 1320.25 82.6355 1319.14 84.3839C1319.62 84.1534 1320.15 84.0189 1320.71 84.0189C1322.76 84.0189 1324.44 85.6904 1324.44 87.7462C1324.44 89.802 1322.76 91.4735 1320.71 91.4735C1320.13 91.4735 1319.62 91.3391 1319.14 91.1085C1320.13 92.684 1321.82 93.7791 1323.76 93.9905C1323.8 95.8733 1323.84 98.3326 1323.86 101.08C1322.67 101.503 1321.8 102.636 1321.8 103.981C1321.8 105.326 1322.67 106.46 1323.86 106.882C1323.86 108.016 1323.84 109.15 1323.82 110.302C1321.79 110.802 1320.27 112.608 1320.27 114.798C1320.27 116.854 1321.63 118.583 1323.49 119.198C1323.44 120.024 1323.4 120.812 1323.32 121.58C1317.54 122.349 1313.09 127.306 1313.09 133.3C1313.09 138.181 1316.04 142.388 1320.27 144.175V150.477H1317.7V154.051H1320.27V161.986H1317.7V165.559H1320.27V170.151C1320.27 177.683 1314.16 183.812 1306.62 183.812H1304.26V191.939H1300.9V196.704H1303.07L1308.42 212.958V250.423H1298.78V261.913H1296.4V266.274H1298.78L1306.71 287.678V383.743H1292.01V395.233H1289.01V399.594H1292.01L1301.99 420.997V524.594L1292.01 545.998V571.705H1261.11V552.53H1262.17V550.34C1262.17 546.574 1265.28 542.309 1265.28 542.309L1261.71 539.946C1261.71 539.946 1268.08 525.785 1263.84 504.324C1260.31 486.495 1242.8 464.265 1222.77 457.252H1222.81C1222.81 457.252 1221.58 455.485 1220.87 455.12C1220.22 454.793 1214.32 454.159 1212.29 449.068C1213.06 448.472 1213.56 447.55 1213.56 446.512C1213.56 445.071 1212.6 443.842 1211.29 443.438C1211.25 442.939 1211.21 442.42 1211.17 441.882C1212.31 441.517 1213.13 440.46 1213.13 439.192C1213.13 437.866 1212.21 436.752 1210.96 436.445C1210.94 435.734 1210.94 435.042 1210.94 434.35C1211.67 434.081 1212.19 433.409 1212.19 432.583C1212.19 431.757 1211.67 431.084 1210.94 430.815C1210.96 429.067 1210.98 427.53 1211 426.358C1212.63 425.916 1213.82 424.436 1213.82 422.669C1213.82 420.555 1212.11 418.826 1209.98 418.826C1208.62 418.826 1207.43 419.537 1206.76 420.613C1207.05 420.479 1207.37 420.382 1207.72 420.382C1208.97 420.382 1209.98 421.401 1209.98 422.65C1209.98 423.898 1208.97 424.917 1207.72 424.917C1207.37 424.917 1207.05 424.84 1206.76 424.686C1207.37 425.647 1208.41 426.3 1209.58 426.415C1209.6 427.568 1209.64 429.086 1209.64 430.777C1208.91 431.046 1208.39 431.718 1208.39 432.544C1208.39 433.371 1208.91 434.043 1209.64 434.312C1209.64 435.004 1209.62 435.715 1209.62 436.406C1208.37 436.714 1207.45 437.828 1207.45 439.154C1207.45 440.422 1208.28 441.478 1209.41 441.843C1209.37 442.381 1209.33 442.9 1209.29 443.4C1207.99 443.822 1207.03 445.033 1207.03 446.474C1207.03 447.511 1207.53 448.434 1208.29 449.029C1206.26 454.121 1200.36 454.755 1199.71 455.081C1199 455.427 1197.77 457.214 1197.77 457.214H1197.81C1184.81 461.767 1172.87 472.738 1165.11 484.746V464.4L1155.13 442.996V339.399L1165.11 317.996H1168.11V313.635H1165.11V302.145H1150.41V206.08L1158.34 184.676H1160.72V180.315H1158.34V168.883H1148.7V131.418L1154.05 115.163H1156.22V110.398H1152.86V102.271H1150.52C1142.99 102.271 1136.87 96.1615 1136.87 88.6108V84.0189H1139.44V80.4452H1136.87V72.5102H1139.44V68.9366H1136.87V62.6347C1141.09 60.8287 1144.05 56.6402 1144.05 51.7601C1144.05 45.7656 1139.6 40.8278 1133.82 40.0401C1133.76 39.2716 1133.7 38.4646 1133.64 37.6577C1135.51 37.0621 1136.87 35.3329 1136.87 33.2579C1136.87 31.0676 1135.35 29.2615 1133.32 28.762C1133.3 27.6092 1133.28 26.4756 1133.28 25.3421C1134.47 24.9194 1135.33 23.7858 1135.33 22.4409C1135.33 21.096 1134.47 19.9624 1133.28 19.5397C1133.3 16.677 1133.34 14.1601 1133.4 12.258C1136.06 11.5279 1138.02 9.12623 1138.02 6.22505C1138.02 2.76669 1135.22 -0.0576302 1131.74 -0.0576302C1129.52 -0.0576302 1127.56 1.11437 1126.44 2.86276C1126.92 2.6322 1127.46 2.49771 1128.02 2.49771C1130.07 2.49771 1131.74 4.16925 1131.74 6.22505C1131.74 8.28085 1130.07 9.95239 1128.02 9.95239C1127.44 9.95239 1126.92 9.8179 1126.44 9.58734C1127.44 11.1628 1129.13 12.258 1131.07 12.4693C1131.11 14.3522 1131.15 16.8115 1131.17 19.5589C1129.98 19.9816 1129.11 21.1152 1129.11 22.4601C1129.11 23.805 1129.98 24.9386 1131.17 25.3613C1131.17 26.4949 1131.15 27.6284 1131.13 28.7812C1129.09 29.2808 1127.58 31.0868 1127.58 33.2771C1127.58 35.3329 1128.94 37.0621 1130.8 37.6769C1130.75 38.503 1130.71 39.2908 1130.63 40.0593C1124.85 40.8278 1120.4 45.7848 1120.4 51.7793C1120.4 56.6594 1123.35 60.8671 1127.58 62.6539V68.9558H1125V72.5294H1127.58V80.4644H1125V84.0381H1127.58V88.63C1127.58 96.1615 1121.47 102.291 1113.95 102.291H1111.58V110.418H1108.22V115.183H1110.39L1115.75 131.437V168.902H1106.11V180.392H1103.73V184.753H1106.11L1114.04 206.156V302.222H1099.33V313.711H1096.34V318.073H1099.33L1109.32 339.476V443.073L1101.31 460.25C1101.27 460.038 1101.25 459.846 1101.22 459.635C1100.08 453.89 1094.42 446.743 1087.97 444.495H1088.03C1088.03 444.495 1087.62 443.919 1087.39 443.803C1087.16 443.688 1084.9 443.457 1084.47 441.344C1084.05 439.211 1083.99 434.158 1083.99 434.158C1083.99 434.158 1083.94 439.23 1083.51 441.344C1083.09 443.477 1080.83 443.688 1080.59 443.803C1080.36 443.919 1079.98 444.495 1079.98 444.495H1080.04C1077.08 445.513 1074.32 447.588 1072.05 450.067V428.183H1073.78V424.609C1073.78 418.423 1078.87 411.468 1078.87 411.468L1073.01 407.606C1073.01 407.606 1083.44 384.435 1076.49 349.275C1070.71 320.071 1042.02 283.681 1009.23 272.211H1009.31C1009.31 272.211 1007.29 269.31 1006.14 268.734C1005.08 268.215 995.424 267.177 992.083 258.82C993.331 257.84 994.157 256.341 994.157 254.631C994.157 252.268 992.601 250.27 990.451 249.597C990.393 248.771 990.317 247.926 990.278 247.061C992.141 246.466 993.504 244.736 993.504 242.661C993.504 240.471 991.987 238.665 989.952 238.165C989.933 237.013 989.913 235.879 989.913 234.746C991.104 234.323 991.968 233.189 991.968 231.844C991.968 230.499 991.104 229.366 989.913 228.943C989.933 226.08 989.971 223.564 990.029 221.661C992.697 220.931 994.656 218.53 994.656 215.629C994.656 212.17 991.853 209.346 988.378 209.346C986.15 209.346 984.192 210.518 983.078 212.266C983.558 212.036 984.096 211.901 984.653 211.901C986.707 211.901 988.378 213.573 988.378 215.629C988.378 217.684 986.707 219.356 984.653 219.356C984.077 219.356 983.558 219.221 983.078 218.991C984.077 220.566 985.766 221.661 987.705 221.873C987.744 223.756 987.782 226.215 987.801 228.962C986.611 229.385 985.747 230.519 985.747 231.864C985.747 233.209 986.611 234.342 987.801 234.765C987.801 235.898 987.782 237.032 987.763 238.185C985.728 238.684 984.211 240.49 984.211 242.681C984.211 244.736 985.574 246.466 987.437 247.08C987.379 247.945 987.321 248.79 987.264 249.616C985.113 250.289 983.558 252.287 983.558 254.65C983.558 256.36 984.384 257.878 985.632 258.839C982.291 267.196 972.633 268.215 971.578 268.753C970.425 269.329 968.39 272.23 968.39 272.23H968.467C935.674 283.72 906.989 320.09 901.209 349.294C894.259 384.454 904.685 407.625 904.685 407.625L898.829 411.487C898.829 411.487 903.898 418.404 903.917 424.59C902.957 425.243 901.882 425.397 901.709 425.493C901.421 425.628 900.922 426.358 900.922 426.358H900.998C893.971 428.798 887.712 435.868 885.235 442.401C882.47 437.828 877.958 433.563 873.024 431.833H873.082C873.082 431.833 872.64 431.199 872.39 431.065C872.141 430.93 869.587 430.681 869.126 428.298C868.666 425.916 868.589 420.248 868.589 420.248C868.589 420.248 868.531 425.916 868.051 428.298C867.59 430.681 865.037 430.93 864.787 431.065C864.537 431.199 864.096 431.833 864.096 431.833H864.153C861.101 432.89 858.201 434.946 855.782 437.444C852.653 432.602 847.814 428.183 842.573 426.358H842.649C842.649 426.358 842.15 425.647 841.862 425.493C841.574 425.359 838.733 425.07 838.195 422.4C837.677 419.729 837.6 413.37 837.6 413.37C837.6 413.37 837.523 419.729 837.005 422.4C836.563 424.648 834.49 425.205 833.664 425.397V410.334H836.045V405.454C836.045 397 843.014 387.49 843.014 387.49L834.989 382.206C834.989 382.206 849.254 350.485 839.75 302.395C831.859 262.47 792.653 212.708 747.84 196.953C747.84 196.953 745.075 192.996 743.501 192.189C742.061 191.458 728.832 190.056 724.281 178.624C726.01 177.298 727.123 175.243 727.123 172.899C727.123 169.652 724.973 166.943 722.054 166.001C721.958 164.868 721.882 163.715 721.805 162.524C724.358 161.697 726.202 159.334 726.202 156.51C726.202 153.513 724.128 151.034 721.344 150.362C721.325 148.786 721.286 147.23 721.286 145.693C722.918 145.097 724.089 143.56 724.089 141.716C724.089 139.891 722.918 138.334 721.286 137.739C721.306 133.973 721.363 130.63 721.421 128.036C724.089 127.748 726.393 126.249 727.757 124.097C727.104 124.405 726.374 124.597 725.587 124.597C722.784 124.597 720.499 122.311 720.499 119.505C720.499 116.7 722.784 114.414 725.587 114.414C726.355 114.414 727.085 114.606 727.757 114.914C726.24 112.512 723.571 110.917 720.518 110.917C715.776 110.917 711.936 114.76 711.936 119.505C711.936 123.463 714.624 126.806 718.272 127.786C718.33 130.399 718.387 133.838 718.425 137.739C716.793 138.334 715.622 139.871 715.622 141.716C715.622 143.541 716.793 145.097 718.425 145.693C718.406 147.23 718.387 148.805 718.368 150.362C715.584 151.034 713.51 153.532 713.51 156.51C713.51 159.334 715.373 161.697 717.907 162.524C717.83 163.715 717.753 164.868 717.657 166.001C714.72 166.943 712.589 169.652 712.589 172.899C712.589 175.243 713.721 177.298 715.43 178.624C710.88 190.037 697.651 191.458 696.211 192.189C694.617 192.976 691.872 196.953 691.872 196.953C647.059 212.708 607.853 262.47 599.962 302.395C590.458 350.485 604.723 382.206 604.723 382.206L596.698 387.49C596.698 387.49 603.667 397 603.667 405.454V410.334H606.048V425.397C605.222 425.186 603.149 424.648 602.707 422.4C602.189 419.729 602.112 413.37 602.112 413.37C602.112 413.37 602.035 419.729 601.517 422.4C600.998 425.07 598.138 425.359 597.849 425.493C597.562 425.628 597.062 426.358 597.062 426.358H597.139C591.878 428.183 587.059 432.602 583.93 437.444C581.51 434.946 578.611 432.909 575.558 431.833H575.616C575.616 431.833 575.174 431.199 574.925 431.065C574.675 430.93 572.121 430.681 571.661 428.298C571.2 425.916 571.123 420.248 571.123 420.248C571.123 420.248 571.065 425.916 570.586 428.298C570.125 430.681 567.571 430.93 567.322 431.065C567.072 431.199 566.63 431.833 566.63 431.833H566.688C561.753 433.543 557.261 437.809 554.477 442.401C552 435.868 545.741 428.798 538.714 426.358H538.79C538.79 426.358 538.291 425.647 538.003 425.493C537.83 425.416 536.755 425.263 535.795 424.59C535.814 418.423 540.883 411.487 540.883 411.487L535.027 407.625C535.027 407.625 545.453 384.454 538.502 349.294C532.723 320.09 504.038 283.701 471.245 272.23H471.321C471.321 272.23 469.305 269.329 468.134 268.753C467.078 268.234 457.421 267.196 454.08 258.839C455.328 257.859 456.153 256.36 456.153 254.65C456.153 252.287 454.598 250.289 452.448 249.616C452.39 248.79 452.313 247.945 452.275 247.08C454.137 246.485 455.501 244.756 455.501 242.681C455.501 240.49 453.984 238.684 451.949 238.185C451.929 237.032 451.91 235.898 451.91 234.765C453.101 234.342 453.965 233.209 453.965 231.864C453.965 230.519 453.101 229.385 451.91 228.962C451.929 226.215 451.968 223.756 452.006 221.873C453.965 221.661 455.635 220.566 456.633 218.991C456.153 219.221 455.616 219.356 455.059 219.356C453.005 219.356 451.334 217.684 451.334 215.629C451.334 213.573 453.005 211.901 455.059 211.901C455.635 211.901 456.153 212.036 456.633 212.266C455.52 210.518 453.561 209.346 451.334 209.346C447.878 209.346 445.056 212.151 445.056 215.629C445.056 218.53 447.033 220.931 449.683 221.661C449.721 223.564 449.779 226.1 449.798 228.943C448.608 229.366 447.744 230.499 447.744 231.844C447.744 233.189 448.608 234.323 449.798 234.746C449.798 235.879 449.779 237.013 449.76 238.165C447.725 238.665 446.208 240.471 446.208 242.661C446.208 244.717 447.571 246.446 449.433 247.061C449.376 247.926 449.318 248.771 449.261 249.597C447.11 250.27 445.555 252.268 445.555 254.631C445.555 256.341 446.381 257.859 447.629 258.82C444.288 267.177 434.63 268.196 433.574 268.734C432.422 269.31 430.387 272.211 430.387 272.211H430.464C397.67 283.701 368.985 320.071 363.206 349.275C356.256 384.435 366.681 407.606 366.681 407.606L360.825 411.468C360.825 411.468 365.913 418.423 365.913 424.609V428.183H367.641V450.067C365.376 447.588 362.611 445.552 359.654 444.514H359.712C359.712 444.514 359.309 443.938 359.097 443.822C358.867 443.707 356.601 443.477 356.179 441.363C355.757 439.23 355.699 434.177 355.699 434.177C355.699 434.177 355.641 439.25 355.219 441.363C354.797 443.496 352.531 443.707 352.301 443.822C352.07 443.938 351.686 444.514 351.686 444.514H351.744C345.293 446.762 339.629 453.909 338.496 459.654C338.457 459.865 338.419 460.057 338.4 460.269L330.393 443.092V339.495L340.377 318.092H343.373V313.731H340.377V302.241H325.67V206.176L333.6 184.772H335.981V180.411H333.6V168.883H323.961V131.418L329.318 115.163H331.488V110.398H328.128V102.271H325.766C318.24 102.271 312.115 96.1615 312.115 88.6108V84.0189H314.688V80.4452H312.115V72.5102H314.688V68.9366H312.115V62.6347C316.339 60.8287 319.296 56.6402 319.296 51.7601C319.296 45.7656 314.841 40.8278 309.062 40.0401C309.005 39.2716 308.947 38.4646 308.889 37.6577C310.752 37.0621 312.115 35.3329 312.115 33.2579C312.115 31.0676 310.598 29.2615 308.563 28.762C308.544 27.6092 308.525 26.4756 308.525 25.3421C309.715 24.9194 310.579 23.7858 310.579 22.4409C310.579 21.096 309.715 19.9624 308.525 19.5397C308.544 16.7923 308.582 14.333 308.621 12.4501C310.579 12.2387 312.249 11.1436 313.248 9.56813C312.768 9.79869 312.23 9.93318 311.673 9.93318C309.619 9.93318 307.949 8.26164 307.949 6.20584C307.949 4.15004 309.619 2.4785 311.673 2.4785C312.249 2.4785 312.768 2.61299 313.248 2.84355C312.134 1.09516 310.176 -0.0768433 307.949 -0.0768433C304.493 -0.0768433 301.67 2.72827 301.67 6.20584C301.67 9.10701 303.648 11.5087 306.297 12.2387C306.336 14.1408 306.393 16.677 306.413 19.5205C305.222 19.9432 304.358 21.0768 304.358 22.4217C304.358 23.7666 305.222 24.9002 306.413 25.3229C306.413 26.4564 306.393 27.59 306.374 28.7428C304.339 29.2423 302.822 31.0484 302.822 33.2387C302.822 35.2945 304.185 37.0236 306.048 37.6385C305.99 38.4646 305.952 39.2524 305.875 40.0209C300.096 40.7894 295.641 45.7464 295.641 51.7409C295.641 56.621 298.598 60.8287 302.822 62.6155V68.9174H300.249V72.491H302.822V80.426H300.249V83.9997H302.822V88.5916C302.822 96.1231 296.717 102.252 289.171 102.252H286.809V110.379H283.449V115.144H285.619L290.976 131.398V168.864H281.337V180.353H278.957V184.715H281.337L289.267 206.118V302.184H274.56V313.673H271.565V318.034H274.56L284.544 339.438V443.035L274.56 464.438V484.785C266.822 472.757 254.88 461.806 241.862 457.252H241.901C241.901 457.252 240.672 455.485 239.962 455.12C239.309 454.793 233.414 454.159 231.379 449.068C232.147 448.472 232.646 447.55 232.646 446.512C232.646 445.071 231.686 443.842 230.381 443.438C230.342 442.939 230.304 442.42 230.265 441.882C231.398 441.517 232.224 440.46 232.224 439.192C232.224 437.866 231.302 436.752 230.054 436.445C230.035 435.734 230.035 435.042 230.035 434.35C230.765 434.081 231.283 433.409 231.283 432.583C231.283 431.757 230.765 431.084 230.035 430.815C230.054 429.124 230.073 427.607 230.093 426.454C231.283 426.319 232.32 425.685 232.915 424.725C232.627 424.859 232.301 424.955 231.955 424.955C230.707 424.955 229.689 423.937 229.689 422.688C229.689 421.439 230.707 420.421 231.955 420.421C232.301 420.421 232.627 420.498 232.915 420.651C232.243 419.576 231.033 418.865 229.689 418.865C227.577 418.865 225.849 420.575 225.849 422.707C225.849 424.475 227.059 425.954 228.672 426.396C228.691 427.568 228.729 429.105 228.729 430.854C228 431.123 227.482 431.795 227.482 432.621C227.482 433.447 228 434.12 228.729 434.389C228.729 435.08 228.71 435.791 228.71 436.483C227.462 436.79 226.541 437.905 226.541 439.23C226.541 440.499 227.366 441.555 228.499 441.92C228.461 442.458 228.422 442.977 228.384 443.477C227.078 443.899 226.118 445.11 226.118 446.551C226.118 447.588 226.617 448.51 227.385 449.106C225.35 454.198 219.456 454.832 218.803 455.158C218.093 455.504 216.864 457.291 216.864 457.291H216.902C196.877 464.304 179.347 486.514 175.833 504.363C171.59 525.824 177.965 539.984 177.965 539.984L174.393 542.347C174.393 542.347 177.504 546.593 177.504 550.378V552.569H178.56V571.743H147.878V546.036L137.894 524.633V421.036L147.878 399.632H150.874V395.271H147.878V383.782H133.171V287.716L141.101 266.313H143.482V261.951H141.101V250.462H131.462V212.996L136.819 196.742H138.989V191.977H135.629V183.85H133.286C125.76 183.85 119.635 177.74 119.635 170.19V165.598H122.208V162.024H119.635V154.089H122.208V150.515H119.635V144.213C123.859 142.407 126.816 138.219 126.816 133.339C126.816 127.344 122.361 122.407 116.582 121.619C116.525 120.85 116.467 120.043 116.41 119.236C118.272 118.641 119.635 116.912 119.635 114.837C119.635 112.646 118.118 110.84 116.083 110.341C116.064 109.188 116.045 108.054 116.045 106.921C117.235 106.498 118.099 105.365 118.099 104.02C118.099 102.675 117.235 101.541 116.045 101.119C116.064 98.371 116.102 95.9118 116.141 94.0289C118.099 93.8175 119.77 92.7224 120.768 91.1469C120.288 91.3775 119.75 91.512 119.193 91.512C117.139 91.512 115.469 89.8404 115.469 87.7846C115.469 85.7288 117.139 84.0573 119.193 84.0573C119.77 84.0573 120.288 84.1918 120.768 84.4223C119.654 82.6739 117.696 81.5019 115.469 81.5019C112.013 81.5019 109.19 84.3071 109.19 87.7846C109.19 90.6858 111.168 93.0874 113.817 93.8175C113.856 95.7196 113.913 98.2558 113.933 101.099C112.742 101.522 111.878 102.656 111.878 104C111.878 105.345 112.742 106.479 113.933 106.902C113.933 108.035 113.913 109.169 113.894 110.322C111.859 110.821 110.342 112.627 110.342 114.817C110.342 116.873 111.705 118.602 113.568 119.217C113.51 120.043 113.453 120.831 113.395 121.6C107.616 122.368 103.161 127.325 103.161 133.32C103.161 138.2 106.118 142.388 110.342 144.194V150.496H107.77V154.07H110.342V162.005H107.77V165.578H110.342V170.17C110.342 177.702 104.237 183.831 96.7103 183.831H94.3487V191.958H90.9887V196.723H93.1583L98.5151 212.977V250.443H88.8767V261.932H86.4959V266.293H88.8767L96.8063 287.697V383.762H82.0991V395.252H79.1039V399.613H82.0991L92.0831 421.017V524.613L82.0991 546.017V574.971C74.6303 565.73 64.7999 557.833 54.2591 554.144H54.2975C54.2975 554.144 53.0687 552.376 52.3583 552.011C51.7055 551.685 45.8111 551.051 43.7759 545.959C44.5439 545.364 45.0431 544.441 45.0431 543.404C45.0431 541.963 44.0831 540.733 42.7775 540.33C42.7391 539.83 42.7007 539.312 42.6623 538.774C43.7951 538.409 44.6207 537.352 44.6207 536.084C44.6207 534.758 43.6991 533.644 42.4511 533.336C42.4319 532.625 42.4319 531.934 42.4319 531.242C43.1615 530.973 43.6799 530.301 43.6799 529.474C43.6799 528.648 43.1615 527.976 42.4319 527.707C42.4511 525.997 42.4703 524.498 42.4895 523.345C43.6799 523.211 44.7167 522.577 45.3119 521.616C45.0239 521.751 44.6975 521.847 44.3519 521.847C43.1039 521.847 42.0863 520.828 42.0863 519.58C42.0863 518.331 43.1039 517.313 44.3519 517.313C44.6975 517.313 45.0239 517.389 45.3119 517.543C44.6399 516.467 43.4303 515.756 42.0863 515.756C39.9743 515.756 38.2463 517.466 38.2463 519.599C38.2463 521.367 39.4559 522.846 41.0687 523.288C41.0879 524.46 41.1263 525.997 41.1263 527.745C40.3967 528.014 39.8783 528.687 39.8783 529.513C39.8783 530.339 40.3967 531.011 41.1263 531.28C41.1263 531.972 41.1071 532.683 41.1071 533.375C39.8591 533.682 38.9375 534.796 38.9375 536.122C38.9375 537.39 39.7631 538.447 40.8959 538.812C40.8575 539.35 40.8191 539.869 40.7807 540.368C39.4751 540.791 38.5151 542.001 38.5151 543.442C38.5151 544.48 39.0143 545.402 39.7823 545.998C37.7471 551.089 31.8527 551.723 31.1999 552.05C30.4895 552.396 29.2607 554.182 29.2607 554.182H29.2991C18.0287 558.121 7.5647 566.882 -0.0769043 576.969V627.019H1439.92V576.969C1432.36 566.863 1421.89 558.102 1410.62 554.144ZM119.117 517.082H110.861V472.584C110.861 470.298 112.704 468.454 114.989 468.454C117.273 468.454 119.117 470.298 119.117 472.584V517.082ZM311.731 435.542H303.475V391.044C303.475 388.758 305.318 386.913 307.603 386.913C309.888 386.913 311.731 388.758 311.731 391.044V435.542ZM1329.14 517.082H1320.88V472.584C1320.88 470.298 1322.73 468.454 1325.01 468.454C1327.3 468.454 1329.14 470.298 1329.14 472.584V517.082Z" fill="#282C1F"/>
</g>
<defs>
<clipPath id="clip0_5_5">
<rect width="1440" height="627" fill="white"/>
</clipPath>
</defs>
</svg>
