<svg width="528" height="602" viewBox="0 0 528 602" fill="none" xmlns="http://www.w3.org/2000/svg">
<g clip-path="url(#clip0_7_33)">
<path d="M532.953 351.207L434.408 245.74L379.408 173.365L289.613 152.604L190.824 53.8653L79.6975 14.0199L9.53381 0V35.9062L139.752 115.573L219.45 217.125L273.887 324.844L278.378 364.677L249.752 425.834H207.101L83.0631 352.896L24.1344 354.572L-3.37529e-06 375.332V407.874L122.349 481.938L194.189 507.739L278.941 557.677L328.899 568.333L451.811 596.385L490.534 590.769L536 602L532.953 351.207Z" fill="#EBEBEB"/>
<path d="M345.495 199.827L303.651 185.623L229.571 173.365L138.626 172.802L179.601 226.105L209.904 228.344L282.588 214.593H321.642L345.495 199.827Z" fill="#D9D6D1"/>
<path d="M138.626 172.802L74.08 225.542L63.4201 256.958L47.7058 281.083L54.437 296.792H76.8948L100.466 280.521L110.563 256.396L179.601 226.105L138.626 172.802Z" fill="#D9D6D1"/>
<path d="M379.408 173.365L118.151 109.187L124.797 175.897L282.588 214.593H364.256L379.408 173.365Z" fill="#E9E9E9"/>
<path d="M118.151 109.187L50.1781 149.044L34.7942 154.843L22.4823 182.357L6.73123 204.219V217.125L30.8657 226.105L57.8027 214.593L78.2167 190.407L124.797 175.897L124.601 110.496L118.151 109.187Z" fill="#E9E9E9"/>
<path d="M388.954 217.688L282.588 214.593L209.903 228.344L175.672 256.396L153.777 267.614L142.555 290.614L124.601 311.937L139.752 323.155L173.433 313.625L187.458 292.865L218.887 276.594L252.004 263.687L382.21 262.011L388.954 217.688Z" fill="#BEBCB7"/>
<path d="M388.954 217.688L282.588 214.593L209.904 228.344L252.004 263.687L382.21 262.011L388.954 217.688Z" fill="#BEBCB7"/>
<path d="M209.903 228.344L175.672 256.396L153.777 267.614L142.555 290.614L124.601 311.937L139.752 323.155L173.433 313.625L187.458 292.865L252.004 263.687L209.903 228.344Z" fill="#BEBCB7"/>
<path d="M249.752 425.834H207.101L142.224 387.676L84.4828 459.012L122.349 481.938L194.189 507.739L208.876 516.388L248.773 427.999" fill="#EBEBEB"/>
<path d="M142.224 387.676L83.0632 352.896L24.1345 354.572L5.9299e-05 371.968V407.874L84.4828 459.012L142.224 387.676Z" fill="#EBEBEB"/>
<path d="M379.408 173.365L245.603 268.874L273.887 324.844L277.705 358.646L249.752 425.834L208.876 516.388L278.941 557.677L451.811 596.385L490.534 590.769L536 602L532.953 351.207L379.408 173.365Z" fill="#EBEBEB"/>
<path d="M289.613 152.604L379.408 173.365L246.105 268.874L199.537 202.163L289.613 152.604Z" fill="#EBEBEB"/>
<path d="M190.824 53.8653L289.613 152.604L201.214 204.573L139.752 115.573L190.824 53.8653Z" fill="#EBEBEB"/>
<path d="M190.824 53.8653L79.6975 14.0199L9.5338 0V35.9062L139.752 115.573L190.824 53.8653Z" fill="#EBEBEB"/>
</g>
<defs>
<clipPath id="clip0_7_33">
<rect width="536" height="602" fill="white" transform="matrix(-1 0 0 1 536 0)"/>
</clipPath>
</defs>
</svg>
