<svg width="91" height="95" viewBox="0 0 91 95" fill="none" xmlns="http://www.w3.org/2000/svg">
<path d="M38.606 6.33762C40.0185 -1.31257 50.9815 -1.31257 52.394 6.33762C53.4045 11.8105 60.0828 13.9804 64.1172 10.1467C69.7567 4.78785 78.6259 11.2317 75.272 18.2511C72.8727 23.2728 77.0001 28.9537 82.5174 28.2235C90.2296 27.2029 93.6174 37.6293 86.7781 41.3367C81.8854 43.989 81.8854 51.011 86.7781 53.6633C93.6174 57.3707 90.2296 67.7971 82.5174 66.7765C77.0001 66.0463 72.8727 71.7272 75.272 76.7488C78.6259 83.7683 69.7567 90.2122 64.1172 84.8533C60.0828 81.0196 53.4045 83.1895 52.394 88.6624C50.9815 96.3126 40.0185 96.3126 38.606 88.6624C37.5955 83.1895 30.9172 81.0196 26.8828 84.8533C21.2433 90.2121 12.3741 83.7683 15.728 76.7488C18.1273 71.7272 13.9999 66.0463 8.48262 66.7765C0.770359 67.7971 -2.61739 57.3707 4.22188 53.6633C9.11464 51.011 9.11464 43.989 4.22188 41.3367C-2.61739 37.6293 0.770359 27.2029 8.48262 28.2235C13.9999 28.9537 18.1273 23.2728 15.728 18.2511C12.3741 11.2317 21.2433 4.78785 26.8828 10.1467C30.9172 13.9804 37.5955 11.8105 38.606 6.33762Z" fill="#DDE39A"/>
</svg>
